<?xml version="1.0" encoding="UTF-8" standalone="no" ?>
<!DOCTYPE svg PUBLIC "-//W3C//DTD SVG 1.1//EN" "http://www.w3.org/Graphics/SVG/1.1/DTD/svg11.dtd">
<svg xmlns="http://www.w3.org/2000/svg" xmlns:xlink="http://www.w3.org/1999/xlink" version="1.1" width="1080" height="1080" viewBox="0 0 1080 1080" xml:space="preserve">
<desc>Created with Fabric.js 5.2.4</desc>
<defs>
</defs>
<g transform="matrix(1 0 0 1 540 540)" id="5ac59292-c4fc-427c-bbb8-f65f0ff07d14"  >
<rect style="stroke: none; stroke-width: 1; stroke-dasharray: none; stroke-linecap: butt; stroke-dashoffset: 0; stroke-linejoin: miter; stroke-miterlimit: 4; fill: rgb(255,255,255); fill-rule: nonzero; opacity: 1; visibility: hidden;" vector-effect="non-scaling-stroke"  x="-540" y="-540" rx="0" ry="0" width="1080" height="1080" />
</g>
<g transform="matrix(Infinity NaN NaN Infinity 0 0)" id="847bc74c-cea9-44b7-9c2d-b556cd31e21f"  >
</g>
<g transform="matrix(1 0 0 1 540 451.56)"  >
<g style="" vector-effect="non-scaling-stroke"   >
		<g transform="matrix(1.56 0 0 1.56 -4.33 146.32)"  >
<path style="stroke: none; stroke-width: 1; stroke-dasharray: none; stroke-linecap: butt; stroke-dashoffset: 0; stroke-linejoin: miter; stroke-miterlimit: 4; fill: rgb(83,158,67); fill-rule: nonzero; opacity: 1;" vector-effect="non-scaling-stroke"  transform=" translate(-253.11, -250.19)" d="M 253.11 313.094 C 251.377 313.094 249.75900000000001 312.632 248.256 311.823 L 232.885 302.693 C 230.57299999999998 301.421 231.72899999999998 300.959 232.423 300.728 C 235.543 299.688 236.121 299.456 239.357 297.608 C 239.704 297.376 240.167 297.492 240.513 297.723 L 252.302 304.773 C 252.76399999999998 305.004 253.34199999999998 305.004 253.688 304.773 L 299.803 278.07500000000005 C 300.265 277.84400000000005 300.497 277.38100000000003 300.497 276.80400000000003 L 300.497 223.52400000000003 C 300.497 222.94500000000002 300.265 222.48400000000004 299.803 222.25200000000004 L 253.688 195.67000000000004 C 253.226 195.43800000000005 252.648 195.43800000000005 252.302 195.67000000000004 L 206.18699999999998 222.25200000000004 C 205.725 222.48300000000003 205.493 223.06100000000004 205.493 223.52300000000002 L 205.493 276.803 C 205.493 277.266 205.725 277.843 206.18699999999998 278.075 L 218.785 285.356 C 225.60399999999998 288.823 229.88 284.778 229.88 280.733 L 229.88 228.14600000000002 C 229.88 227.453 230.458 226.75900000000001 231.267 226.75900000000001 L 237.161 226.75900000000001 C 237.855 226.75900000000001 238.548 227.33700000000002 238.548 228.14600000000002 L 238.548 280.733 C 238.548 289.863 233.578 295.18 224.91 295.18 C 222.252 295.18 220.172 295.18 214.277 292.29 L 202.142 285.356 C 199.137 283.623 197.28799999999998 280.38599999999997 197.28799999999998 276.919 L 197.28799999999998 223.63899999999998 C 197.28799999999998 220.17199999999997 199.13699999999997 216.93499999999997 202.142 215.20199999999997 L 248.256 188.50399999999996 C 251.146 186.88599999999997 255.076 186.88599999999997 257.965 188.50399999999996 L 304.07899999999995 215.20199999999997 C 307.08399999999995 216.93499999999997 308.93399999999997 220.17199999999997 308.93399999999997 223.63899999999998 L 308.93399999999997 276.919 C 308.93399999999997 280.38599999999997 307.08399999999995 283.623 304.07899999999995 285.356 L 257.965 312.054 C 256.462 312.748 254.72899999999998 313.094 253.11099999999996 313.094 z M 267.326 276.457 C 247.10100000000003 276.457 242.94000000000003 267.211 242.94000000000003 259.352 C 242.94000000000003 258.65799999999996 243.51800000000003 257.965 244.32700000000003 257.965 L 250.33700000000002 257.965 C 251.03000000000003 257.965 251.608 258.42699999999996 251.608 259.121 C 252.53300000000002 265.246 255.191 268.251 267.442 268.251 C 277.15000000000003 268.251 281.312 266.05499999999995 281.312 260.854 C 281.312 257.849 280.15500000000003 255.654 265.015 254.15099999999998 C 252.41699999999997 252.879 244.558 250.106 244.558 240.051 C 244.558 230.689 252.418 225.141 265.593 225.141 C 280.386 225.141 287.668 230.227 288.593 241.321 C 288.593 241.669 288.47700000000003 242.015 288.24600000000004 242.362 C 288.014 242.593 287.66800000000006 242.82399999999998 287.321 242.82399999999998 L 281.31100000000004 242.82399999999998 C 280.73300000000006 242.82399999999998 280.15500000000003 242.362 280.04 241.784 C 278.653 235.428 275.07 233.34699999999998 265.593 233.34699999999998 C 254.96 233.34699999999998 253.68800000000002 237.046 253.68800000000002 239.819 C 253.68800000000002 243.171 255.191 244.21099999999998 269.522 246.06 C 283.738 247.91 290.442 250.568 290.442 260.507 C 290.326 270.678 282.005 276.457 267.326 276.457 z" stroke-linecap="round" />
</g>
		<g transform="matrix(1.56 0 0 1.56 0 -90.77)"  >
<path style="stroke: none; stroke-width: 1; stroke-dasharray: none; stroke-linecap: butt; stroke-dashoffset: 0; stroke-linejoin: miter; stroke-miterlimit: 4; fill: rgb(51,51,51); fill-rule: nonzero; opacity: 1;" vector-effect="non-scaling-stroke"  transform=" translate(-255.88, -98.46)" d="M 110.028 104.712 C 110.028 102.632 108.872 100.666 107.02300000000001 99.626 L 58.01900000000001 71.426 C 57.20900000000001 70.96300000000001 56.28500000000001 70.732 55.36100000000001 70.616 L 54.89800000000001 70.616 C 53.97400000000001 70.616 53.049000000000014 70.963 52.24000000000001 71.426 L 3.2360000000000113 99.626 C 1.3860000000000112 100.66600000000001 0.23100000000001142 102.631 0.23100000000001142 104.712 L 0.3470000000000114 180.529 C 0.3470000000000114 181.569 0.9250000000000114 182.609 1.8490000000000113 183.072 C 2.7740000000000116 183.65 3.9290000000000114 183.65 4.739000000000011 183.072 L 33.86400000000001 166.429 C 35.71300000000001 165.389 36.869000000000014 163.424 36.869000000000014 161.344 L 36.869000000000014 125.862 C 36.869000000000014 123.782 38.024000000000015 121.817 39.87400000000002 120.777 L 52.240000000000016 113.611 C 53.16500000000001 113.033 54.20500000000002 112.801 55.24500000000002 112.801 C 56.28500000000002 112.801 57.32500000000002 113.033 58.13500000000002 113.611 L 70.50100000000002 120.777 C 72.35100000000001 121.81700000000001 73.50600000000001 123.781 73.50600000000001 125.862 L 73.50600000000001 161.344 C 73.50600000000001 163.424 74.66200000000002 165.38899999999998 76.51100000000001 166.429 L 105.63600000000001 183.072 C 106.561 183.65 107.71600000000001 183.65 108.641 183.072 C 109.566 182.609 110.144 181.56900000000002 110.144 180.529 L 110.028 104.712 z M 345.571 0.347 C 344.64700000000005 -0.11600000000000005 343.49100000000004 -0.11600000000000005 342.68100000000004 0.347 C 341.75700000000006 0.9249999999999999 341.17900000000003 1.849 341.17900000000003 2.889 L 341.17900000000003 78.014 C 341.17900000000003 78.707 340.833 79.39999999999999 340.139 79.863 C 339.446 80.209 338.752 80.209 338.059 79.863 L 325.80800000000005 72.813 C 323.9807184521542 71.77258324026788 321.74028154784594 71.77258324026788 319.91300000000007 72.813 L 270.90900000000005 101.129 C 269.06000000000006 102.16900000000001 267.90400000000005 104.134 267.90400000000005 106.214 L 267.90400000000005 162.73 C 267.90400000000005 164.81 269.06000000000006 166.77599999999998 270.90900000000005 167.816 L 319.91300000000007 196.132 C 321.74028154784594 197.17241675973213 323.9807184521542 197.17241675973213 325.80800000000005 196.132 L 374.81200000000007 167.816 C 376.66100000000006 166.776 377.81700000000006 164.811 377.81700000000006 162.73 L 377.81700000000006 21.844 C 377.81700000000006 19.648 376.66100000000006 17.684 374.81200000000007 16.643 L 345.572 0.347 z M 341.064 144.12300000000002 C 341.064 144.70100000000002 340.833 145.163 340.37 145.394 L 323.612 155.102 C 323.1377137897347 155.3333750950908 322.5832862102654 155.3333750950908 322.10900000000004 155.102 L 305.35100000000006 145.394 C 304.88800000000003 145.163 304.65700000000004 144.585 304.65700000000004 144.12300000000002 L 304.65700000000004 124.70600000000002 C 304.65700000000004 124.12800000000001 304.88800000000003 123.66600000000001 305.35100000000006 123.43500000000002 L 322.10900000000004 113.72600000000001 C 322.5832862102654 113.49462490490923 323.1377137897347 113.49462490490923 323.612 113.72600000000001 L 340.37 123.43500000000002 C 340.833 123.66500000000002 341.064 124.24400000000001 341.064 124.70600000000002 L 341.064 144.12300000000002 z M 508.648 124.244 C 510.49800000000005 123.204 511.538 121.239 511.538 119.158 L 511.538 105.405 C 511.538 103.325 510.382 101.36 508.648 100.32000000000001 L 459.99100000000004 72.12 C 458.1639746733376 71.07996278400888 455.92402532666244 71.07996278400888 454.09700000000004 72.12 L 405.093 100.435 C 403.243 101.47500000000001 402.088 103.44 402.088 105.521 L 402.088 162.037 C 402.088 164.11700000000002 403.243 166.082 405.093 167.122 L 453.75 194.86 C 455.6 195.9 457.795 195.9 459.529 194.86 L 489 178.45 C 489.925 177.987 490.503 176.947 490.503 175.90699999999998 C 490.503 174.867 489.925 173.82699999999997 489 173.36399999999998 L 439.765 145.04799999999997 C 438.841 144.47099999999998 438.263 143.54599999999996 438.263 142.50599999999997 L 438.263 124.82299999999998 C 438.263 123.78299999999997 438.84099999999995 122.74299999999998 439.765 122.27999999999997 L 455.137 113.49599999999997 C 456.05531512682364 112.91810568759982 457.22368487317635 112.91810568759982 458.142 113.49599999999997 L 473.513 122.27999999999997 C 474.438 122.85799999999998 475.01599999999996 123.78199999999997 475.01599999999996 124.82299999999998 L 475.01599999999996 138.69199999999998 C 475.01599999999996 139.73199999999997 475.59399999999994 140.772 476.518 141.23399999999998 C 477.443 141.81199999999998 478.59799999999996 141.81199999999998 479.52299999999997 141.23399999999998 L 508.64799999999997 124.24399999999999 z" stroke-linecap="round" />
</g>
		<g transform="matrix(1.56 0 0 1.56 314.04 -36.03)"  >
<path style="stroke: none; stroke-width: 1; stroke-dasharray: none; stroke-linecap: butt; stroke-dashoffset: 0; stroke-linejoin: miter; stroke-miterlimit: 4; fill: rgb(83,158,67); fill-rule: nonzero; opacity: 1;" vector-effect="non-scaling-stroke"  transform=" translate(-456.87, -133.49)" d="M 456.293 121.586 C 456.64341912035326 121.35523051619431 457.0975808796467 121.35523051619431 457.448 121.586 L 466.81 127.018 C 467.157 127.248 467.388 127.595 467.388 128.058 L 467.388 138.922 C 467.388 139.384 467.157 139.731 466.81 139.962 L 457.448 145.39399999999998 C 457.0975808796467 145.62476948380566 456.64341912035326 145.62476948380566 456.293 145.39399999999998 L 446.931 139.962 C 446.584 139.731 446.353 139.384 446.353 138.922 L 446.353 128.058 C 446.353 127.595 446.584 127.24799999999999 446.931 127.01799999999999 L 456.293 121.58599999999998 z" stroke-linecap="round" />
</g>
		<g transform="matrix(1.56 0 0 1.56 -104.47 -35.76)"  >
<linearGradient id="SVGID_b_3" gradientUnits="objectBoundingBox" gradientTransform="matrix(1 0 0 1 0 0)"  x1="0.68188" y1="0.17487" x2="0.27823000000000003" y2="0.89755">
<stop offset="0%" style="stop-color:rgb(65,135,63);stop-opacity: 1"/>
<stop offset="32.88%" style="stop-color:rgb(65,139,61);stop-opacity: 1"/>
<stop offset="63.519999999999996%" style="stop-color:rgb(65,150,55);stop-opacity: 1"/>
<stop offset="93.19%" style="stop-color:rgb(63,169,45);stop-opacity: 1"/>
<stop offset="100%" style="stop-color:rgb(63,174,42);stop-opacity: 1"/>
</linearGradient>
<path style="stroke: none; stroke-width: 1; stroke-dasharray: none; stroke-linecap: butt; stroke-dashoffset: 0; stroke-linejoin: miter; stroke-miterlimit: 4; fill: url(#SVGID_b_3); fill-rule: nonzero; opacity: 1;" vector-effect="non-scaling-stroke"  transform=" translate(-54.96, -63.16)" d="M 57.903 1.85 C 56.07597467333756 0.8099627840088752 53.83602532666244 0.8099627840088757 52.009 1.850000000000001 L 3.352 29.933 C 1.5019999999999998 30.973 0.46199999999999974 32.938 0.46199999999999974 35.018 L 0.46199999999999974 91.304 C 0.46199999999999974 93.384 1.6179999999999997 95.349 3.352 96.389 L 52.00899999999999 124.47399999999999 C 53.83602532666243 125.51403721599111 56.075974673337555 125.51403721599111 57.90299999999999 124.47399999999999 L 106.56099999999999 96.38899999999998 C 108.41 95.34899999999998 109.451 93.38399999999999 109.451 91.30399999999999 L 109.451 35.019 C 109.451 32.939 108.294 30.973999999999997 106.56099999999999 29.933999999999997 L 57.903 1.85 z" stroke-linecap="round" />
</g>
		<g transform="matrix(1.56 0 0 1.56 -104.56 -35.93)"  >
<path style="stroke: none; stroke-width: 1; stroke-dasharray: none; stroke-linecap: butt; stroke-dashoffset: 0; stroke-linejoin: miter; stroke-miterlimit: 4; fill: none; fill-rule: nonzero; opacity: 1;" vector-effect="non-scaling-stroke"  transform=" translate(-54.9, -63.05)" d="M 51.893 1.85 L 3.121 29.933 C 1.27 30.974 0 32.94 0 35.02 L 0 91.30600000000001 C 0 92.69300000000001 0.578 93.96400000000001 1.502 95.004 L 56.285 1.156 C 54.897999999999996 0.9249999999999999 53.279999999999994 1.0399999999999998 51.892999999999994 1.8489999999999998 z M 56.632 125.053 C 57.094 124.937 57.556999999999995 124.706 58.019 124.475 L 106.792 96.38999999999999 C 108.642 95.34999999999998 109.797 93.38499999999999 109.797 91.30499999999999 L 109.797 35.019 C 109.797 33.516999999999996 109.103 32.013999999999996 108.063 30.973999999999997 L 56.633 125.053 z" stroke-linecap="round" />
</g>
		<g transform="matrix(1.56 0 0 1.56 -104.83 -35.48)"  >
<linearGradient id="SVGID_d_4" gradientUnits="objectBoundingBox" gradientTransform="matrix(1 0 0 1 0 0)"  x1="0.43277000000000004" y1="0.55169" x2="1.5924500000000001" y2="-0.18306">
<stop offset="13.76%" style="stop-color:rgb(65,135,63);stop-opacity: 1"/>
<stop offset="40.32%" style="stop-color:rgb(84,160,68);stop-opacity: 1"/>
<stop offset="71.36%" style="stop-color:rgb(102,184,72);stop-opacity: 1"/>
<stop offset="90.81%" style="stop-color:rgb(108,192,74);stop-opacity: 1"/>
</linearGradient>
<path style="stroke: none; stroke-width: 1; stroke-dasharray: none; stroke-linecap: butt; stroke-dashoffset: 0; stroke-linejoin: miter; stroke-miterlimit: 4; fill: url(#SVGID_d_4); fill-rule: nonzero; opacity: 1;" vector-effect="non-scaling-stroke"  transform=" translate(-54.73, -63.34)" d="M 106.676 29.934 L 57.788 1.85 C 57.30764646621649 1.6074278095546233 56.80411209686924 1.4137865151549498 56.28499999999999 1.271999999999998 L 1.502 95.12 C 1.9557962371584738 95.6740480256117 2.503881083418835 96.14359322744191 3.120999999999997 96.507 L 52.009 124.59200000000001 C 53.396 125.40100000000001 55.014 125.63200000000002 56.516 125.16900000000001 L 107.94800000000001 31.091000000000008 C 107.60100000000001 30.62900000000001 107.138 30.28100000000001 106.676 29.93500000000001 z" stroke-linecap="round" />
</g>
		<g transform="matrix(1.56 0 0 1.56 -104.56 -35.69)"  >
<path style="stroke: none; stroke-width: 1; stroke-dasharray: none; stroke-linecap: butt; stroke-dashoffset: 0; stroke-linejoin: miter; stroke-miterlimit: 4; fill: none; fill-rule: nonzero; opacity: 1;" vector-effect="non-scaling-stroke"  transform=" translate(-54.9, -63.21)" d="M 109.797 91.305 L 109.797 35.019 C 109.797 32.939 108.526 30.973999999999997 106.67699999999999 29.933999999999997 L 57.786 1.85 C 57.220932428903375 1.5010115580733232 56.593207693462944 1.2656147822831634 55.938 1.1570000000000005 L 109.44900000000001 92.577 C 109.68 92.23 109.796 91.768 109.796 91.306 z M 3.12 29.934 C 1.272 30.974 0 32.94 0 35.02 L 0 91.30600000000001 C 0 93.38600000000001 1.387 95.35100000000001 3.12 96.391 L 52.009 124.476 C 53.165 125.169 54.436 125.401 55.823 125.169 L 3.467 29.818 L 3.121 29.934 z" stroke-linecap="round" />
</g>
		<g transform="matrix(1.56 0 0 1.56 -111.96 -147.36)"  >
<linearGradient id="SVGID_e_5" gradientUnits="objectBoundingBox" gradientTransform="matrix(1 0 0 1 0 0)"  x1="-44.1377" y1="0.1343" x2="53.279300000000006" y2="0.1343">
<stop offset="9.192%" style="stop-color:rgb(108,192,74);stop-opacity: 1"/>
<stop offset="28.64%" style="stop-color:rgb(102,184,72);stop-opacity: 1"/>
<stop offset="59.68%" style="stop-color:rgb(84,160,68);stop-opacity: 1"/>
<stop offset="86.24%" style="stop-color:rgb(65,135,63);stop-opacity: 1"/>
</linearGradient>
<path style="stroke: none; stroke-width: 1; stroke-dasharray: none; stroke-linecap: butt; stroke-dashoffset: 0; stroke-linejoin: miter; stroke-miterlimit: 4; fill: url(#SVGID_e_5); fill-rule: evenodd; opacity: 1;" vector-effect="non-scaling-stroke"  transform=" translate(-50.16, -0.98)" d="M 50.391 0.809 L 49.698 1.1560000000000001 L 50.622 1.1560000000000001 L 50.391 0.8090000000000002 z" stroke-linecap="round" />
</g>
		<g transform="matrix(1.56 0 0 1.56 -102.03 -35.75)"  >
<linearGradient id="SVGID_f_6" gradientUnits="objectBoundingBox" gradientTransform="matrix(1 0 0 1 0 0)"  x1="-0.043890000000000005" y1="0.49997" x2="1.01499" y2="0.49997">
<stop offset="9.192%" style="stop-color:rgb(108,192,74);stop-opacity: 1"/>
<stop offset="28.64%" style="stop-color:rgb(102,184,72);stop-opacity: 1"/>
<stop offset="59.68%" style="stop-color:rgb(84,160,68);stop-opacity: 1"/>
<stop offset="86.24%" style="stop-color:rgb(65,135,63);stop-opacity: 1"/>
</linearGradient>
<path style="stroke: none; stroke-width: 1; stroke-dasharray: none; stroke-linecap: butt; stroke-dashoffset: 0; stroke-linejoin: miter; stroke-miterlimit: 4; fill: url(#SVGID_f_6); fill-rule: evenodd; opacity: 1;" vector-effect="non-scaling-stroke"  transform=" translate(-56.52, -72.41)" d="M 106.792 105.636 C 108.179 104.827 109.21900000000001 103.44 109.682 101.938 L 56.053 10.402 C 54.666 10.171 53.163 10.286 51.893 11.094999999999999 L 3.351 39.065 L 55.705999999999996 134.53 C 56.46740526401774 134.4053366848689 57.20695683620918 134.1719536067593 57.901999999999994 133.837 L 106.791 105.63699999999999 z" stroke-linecap="round" />
</g>
		<g transform="matrix(1.56 0 0 1.56 -16.7 14.45)"  >
<linearGradient id="SVGID_g_7" gradientUnits="objectBoundingBox" gradientTransform="matrix(1 0 0 1 0 0)"  x1="-97.13770000000001" y1="0.36210000000000003" x2="0.2793" y2="0.36210000000000003">
<stop offset="9.192%" style="stop-color:rgb(108,192,74);stop-opacity: 1"/>
<stop offset="28.64%" style="stop-color:rgb(102,184,72);stop-opacity: 1"/>
<stop offset="59.68%" style="stop-color:rgb(84,160,68);stop-opacity: 1"/>
<stop offset="86.24%" style="stop-color:rgb(65,135,63);stop-opacity: 1"/>
</linearGradient>
<path style="stroke: none; stroke-width: 1; stroke-dasharray: none; stroke-linecap: butt; stroke-dashoffset: 0; stroke-linejoin: miter; stroke-miterlimit: 4; fill: url(#SVGID_g_7); fill-rule: evenodd; opacity: 1;" vector-effect="non-scaling-stroke"  transform=" translate(-111.13, -104.54)" d="M 111.3 104.712 L 110.953 104.134 L 110.953 104.943 L 111.299 104.712 z" stroke-linecap="round" />
</g>
		<g transform="matrix(1.56 0 0 1.56 -60.14 37.02)"  >
<linearGradient id="SVGID_h_8" gradientUnits="objectBoundingBox" gradientTransform="matrix(1 0 0 1 0 0)"  x1="-1.03861" y1="0.50275" x2="1.00797" y2="0.50275">
<stop offset="9.192%" style="stop-color:rgb(108,192,74);stop-opacity: 1"/>
<stop offset="28.64%" style="stop-color:rgb(102,184,72);stop-opacity: 1"/>
<stop offset="59.68%" style="stop-color:rgb(84,160,68);stop-opacity: 1"/>
<stop offset="86.24%" style="stop-color:rgb(65,135,63);stop-opacity: 1"/>
</linearGradient>
<path style="stroke: none; stroke-width: 1; stroke-dasharray: none; stroke-linecap: butt; stroke-dashoffset: 0; stroke-linejoin: miter; stroke-miterlimit: 4; fill: url(#SVGID_h_8); fill-rule: evenodd; opacity: 1;" vector-effect="non-scaling-stroke"  transform=" translate(-83.33, -118.99)" d="M 106.792 105.636 L 58.019 133.721 C 57.330464681500516 134.07210612981666 56.588347540713244 134.3062988340815 55.823 134.41400000000002 L 56.748 136.14800000000002 L 110.83699999999999 104.82800000000003 L 110.83699999999999 104.13400000000003 L 109.44999999999999 101.82200000000003 C 109.219 103.44000000000003 108.17899999999999 104.82700000000003 106.79199999999999 105.63600000000002 z" stroke-linecap="round" />
</g>
		<g transform="matrix(1.56 0 0 1.56 -60.14 37.02)"  >
<linearGradient id="SVGID_i_9" gradientUnits="objectBoundingBox" gradientTransform="matrix(1 0 0 1 0 0)"  x1="1.30613" y1="-2.11069" x2="0.04393" y2="2.01605">
<stop offset="0%" style="stop-color:rgb(65,135,63);stop-opacity: 1"/>
<stop offset="32.88%" style="stop-color:rgb(65,139,61);stop-opacity: 1"/>
<stop offset="63.519999999999996%" style="stop-color:rgb(65,150,55);stop-opacity: 1"/>
<stop offset="93.19%" style="stop-color:rgb(63,169,45);stop-opacity: 1"/>
<stop offset="100%" style="stop-color:rgb(63,174,42);stop-opacity: 1"/>
</linearGradient>
<path style="stroke: none; stroke-width: 1; stroke-dasharray: none; stroke-linecap: butt; stroke-dashoffset: 0; stroke-linejoin: miter; stroke-miterlimit: 4; fill: url(#SVGID_i_9); fill-rule: evenodd; opacity: 1;" vector-effect="non-scaling-stroke"  transform=" translate(-83.33, -118.99)" d="M 106.792 105.636 L 58.019 133.721 C 57.330464681500516 134.07210612981666 56.588347540713244 134.3062988340815 55.823 134.41400000000002 L 56.748 136.14800000000002 L 110.83699999999999 104.82800000000003 L 110.83699999999999 104.13400000000003 L 109.44999999999999 101.82200000000003 C 109.219 103.44000000000003 108.17899999999999 104.82700000000003 106.79199999999999 105.63600000000002 z" stroke-linecap="round" />
</g>
</g>
</g>
</svg>